<?xml version="1.0" standalone="no"?>
<!DOCTYPE svg PUBLIC "-//W3C//DTD SVG 20010904//EN"
 "http://www.w3.org/TR/2001/REC-SVG-20010904/DTD/svg10.dtd">
<svg version="1.0" xmlns="http://www.w3.org/2000/svg"
 width="1280.000000pt" height="640.000000pt" viewBox="0 0 1280.000000 640.000000"
 preserveAspectRatio="xMidYMid meet">
<metadata>
Created by potrace 1.15, written by Peter Selinger 2001-2017
</metadata>
<g transform="translate(0.000000,640.000000) scale(0.100000,-0.100000)"
fill="#000000" stroke="none">
<path d="M1823 6368 c-46 -50 -76 -98 -273 -443 -412 -722 -665 -1069 -1225
-1685 -279 -305 -337 -383 -321 -425 10 -27 96 -15 192 26 l81 36 -23 -35
c-27 -40 -29 -51 -11 -75 27 -37 112 -40 396 -16 338 29 741 31 965 5 269 -31
516 -79 851 -165 205 -53 311 -74 354 -69 29 4 45 -2 83 -29 61 -44 107 -58
127 -39 24 25 -19 132 -161 403 -410 780 -559 1158 -773 1963 -88 331 -121
428 -154 464 -10 12 -22 37 -26 56 -14 68 -36 76 -82 28z m17 -843 c37 -296
125 -620 245 -905 92 -219 242 -491 357 -647 21 -29 36 -53 33 -53 -3 0 -24
12 -48 27 -112 71 -364 172 -545 217 -417 106 -879 87 -1216 -50 -34 -13 -54
-19 -46 -11 8 7 53 45 100 84 116 97 358 346 456 469 273 341 468 687 610
1079 l29 80 7 -100 c4 -55 12 -140 18 -190z"/>
<path d="M12535 3654 c-127 -10 -470 -46 -565 -60 -440 -63 -1421 -392 -3015
-1012 -99 -39 -333 -129 -520 -202 -187 -72 -396 -153 -465 -180 -69 -27 -296
-114 -506 -194 -460 -174 -434 -164 -1079 -443 -557 -242 -865 -367 -1120
-458 -798 -284 -1563 -455 -2525 -566 -642 -74 -1000 -25 -1233 169 -168 139
-244 326 -254 617 -10 303 27 507 224 1225 103 378 132 513 139 650 9 171 -17
242 -109 287 -178 89 -319 -12 -410 -292 -62 -188 -92 -373 -152 -923 -25
-223 -59 -490 -75 -592 -41 -256 -54 -411 -47 -571 10 -223 50 -389 130 -544
161 -309 479 -494 939 -544 271 -30 859 1 1240 64 514 87 883 205 2453 785
226 83 550 202 720 265 929 339 1188 434 1363 496 105 38 281 101 390 140 108
39 386 137 617 219 1118 395 1772 629 2070 740 642 238 855 319 1180 450 428
172 673 285 796 366 114 75 103 105 -43 109 -51 2 -115 1 -143 -1z"/>
</g>
</svg>
